<?xml version="1.0" encoding="UTF-8" standalone="no"?>
<!-- Generator: Adobe Illustrator 19.0.0, SVG Export Plug-In . SVG Version: 6.00 Build 0)  -->

<svg
   xmlns:dc="http://purl.org/dc/elements/1.1/"
   xmlns:cc="http://creativecommons.org/ns#"
   xmlns:rdf="http://www.w3.org/1999/02/22-rdf-syntax-ns#"
   xmlns:svg="http://www.w3.org/2000/svg"
   xmlns="http://www.w3.org/2000/svg"
   xmlns:sodipodi="http://sodipodi.sourceforge.net/DTD/sodipodi-0.dtd"
   xmlns:inkscape="http://www.inkscape.org/namespaces/inkscape"
   version="1.1"
   id="Capa_1"
   x="0px"
   y="0px"
   viewBox="0 0 52 52"
   style="enable-background:new 0 0 52 52;"
   xml:space="preserve"
   sodipodi:docname="https--off.svg"
   inkscape:version="0.92.3 (2405546, 2018-03-11)"><metadata
   id="metadata8551"><rdf:RDF><cc:Work
       rdf:about=""><dc:format>image/svg+xml</dc:format><dc:type
         rdf:resource="http://purl.org/dc/dcmitype/StillImage" /><dc:title></dc:title></cc:Work></rdf:RDF></metadata><defs
   id="defs8549" /><sodipodi:namedview
   pagecolor="#ffffff"
   bordercolor="#666666"
   borderopacity="1"
   objecttolerance="10"
   gridtolerance="10"
   guidetolerance="10"
   inkscape:pageopacity="0"
   inkscape:pageshadow="2"
   inkscape:window-width="1313"
   inkscape:window-height="698"
   id="namedview8547"
   showgrid="false"
   inkscape:zoom="4.5384615"
   inkscape:cx="-1.4322034"
   inkscape:cy="26"
   inkscape:window-x="538"
   inkscape:window-y="70"
   inkscape:window-maximized="0"
   inkscape:current-layer="Capa_1" />
<path
   style="fill:#C7CAC7;"
   d="M40.771,52H11.229C7.789,52,5,49.211,5,45.771V26.229C5,22.789,7.789,20,11.229,20h29.542  C44.211,20,47,22.789,47,26.229v19.542C47,49.211,44.211,52,40.771,52z"
   id="path8508" />
<path
   style="fill:#E7ECED;"
   d="M40.771,20H26v32h14.771C44.211,52,47,49.211,47,45.771V26.229C47,22.789,44.211,20,40.771,20z"
   id="path8510" />
<path
   style="fill:#4C4C4F;"
   d="M26,40L26,40c-1.65,0-3-1.35-3-3v-6c0-1.65,1.35-3,3-3h0c1.65,0,3,1.35,3,3v6  C29,38.65,27.65,40,26,40z"
   id="path8512" />
<path
   style="fill:#546A79;"
   d="M11.229,20H15v-6.5C15,8.262,19.935,4,26,4s11,4.262,11,9.5V20h3.771  c0.077,0,0.152,0.009,0.229,0.011V13.5C41,6.075,34.25,0,26,0S11,6.075,11,13.5v6.511C11.077,20.009,11.152,20,11.229,20z"
   id="path8514" />
<g
   id="g8516">
</g>
<g
   id="g8518">
</g>
<g
   id="g8520">
</g>
<g
   id="g8522">
</g>
<g
   id="g8524">
</g>
<g
   id="g8526">
</g>
<g
   id="g8528">
</g>
<g
   id="g8530">
</g>
<g
   id="g8532">
</g>
<g
   id="g8534">
</g>
<g
   id="g8536">
</g>
<g
   id="g8538">
</g>
<g
   id="g8540">
</g>
<g
   id="g8542">
</g>
<g
   id="g8544">
</g>
</svg>